<svg xmlns="http://www.w3.org/2000/svg" xmlns:xlink="http://www.w3.org/1999/xlink" aria-hidden="true" role="img" class="iconify iconify--logos" width="35.93" height="32" preserveAspectRatio="xMidYMid meet" viewBox="0 0 256 228"><path fill="#00D8FF" d="M210.483 73.824a171.49 171.49 0 0 0-11.622-4.894c.465-1.33.932-2.658 1.376-3.986c6.238-18.495 8.456-36.74 6.098-53.802a7.63 7.63 0 0 0-1.33-3.643a8.182 8.182 0 0 0-3.156-2.842a7.378 7.378 0 0 0-4.008-.698c-17.577 1.742-36.572 7.674-55.696 17.266a170.974 170.974 0 0 0-9.02-5.12C119.748 6.4 105.998 3.2 93.333 3.2c-28.268 0-54.037 12.462-66.688 32.384a8.042 8.042 0 0 0-.885 6.784a7.957 7.957 0 0 0 4.825 4.52c1.552.465 3.148.885 4.743 1.33C12.395 42.24 4.55 37.163.91 29.952C.91 29.952 0 31.282 0 31.282c5.807 20.48 22.528 42.24 51.029 57.002a171.136 171.136 0 0 0-7.44 5.807a8.182 8.182 0 0 0-2.33 3.643a7.68 7.68 0 0 0 .232 5.342a8.228 8.228 0 0 0 3.875 4.055a171.584 171.584 0 0 0 51.456 19.783a168.405 168.405 0 0 0-4.52 8.923a7.545 7.545 0 0 0-.698 4.055a8.32 8.32 0 0 0 2.608 4.288a7.68 7.68 0 0 0 4.52 1.742h.465c1.33 0 2.608-.232 3.875-.698a180.864 180.864 0 0 0 18.262-5.807a170.24 170.24 0 0 0 15.36 8.69c1.33.698 2.658 1.33 3.986 1.997c16.82 8.69 32.85 14.622 47.104 17.55a7.68 7.68 0 0 0 4.055.465h.465a7.545 7.545 0 0 0 4.055-1.552a8.228 8.228 0 0 0 3.41-3.875c6.47-18.03 7.208-35.84 2.142-52.202Zm-12.09-48.384c1.552 12.323-1.33 26.536-8.232 41.472a163.072 163.072 0 0 1-38.037-10.427c11.622-20.25 18.99-42.24 21.378-64.185c11.39 4.288 22.528 9.598 33.216 15.998a115.584 115.584 0 0 1-8.325 16.142Zm-28.763-31.488c-1.785 20.018-8.232 39.808-18.762 58.112a154.88 154.88 0 0 1-49.664-12.09c13.857-18.03 22.063-38.502 23.382-60.03c9.133-.698 18.497-1.098 28.098-1.098c11.622 0 22.78.93 33.216 2.608a115.2 115.2 0 0 1-7.27 11.498ZM45.568 42.24c-9.365-6.47-17.577-13.857-24.277-21.843c8.69-12.09 20.942-21.843 35.428-28.31c1.33 20.018 8.69 39.575 20.48 57.113a154.453 154.453 0 0 1-31.63-7.44Zm13.63 18.03c-11.39-7.44-21.376-16.142-29.568-25.834c5.577-5.807 11.622-11.157 18.03-15.998c8.69 10.195 19.55 19.318 32.15 26.998a135.68 135.68 0 0 1-20.612 14.834Zm153.813 100.352c-12.09 2.608-25.6 2.142-39.808-1.33a154.88 154.88 0 0 1-19.55-5.807a180.501 180.501 0 0 1-17.55-7.208c-1.098 2.142-2.33 4.288-3.41 6.47c-7.44 14.622-11.622 29.568-12.09 44.053c-1.33 1.552-2.608 3.156-3.875 4.743c-8.69 11.157-18.03 20.942-27.858 29.11c15.36 4.52 31.488 4.52 47.104 0a170.24 170.24 0 0 0 28.763-10.427c1.33 1.785 2.842 3.41 4.288 5.12c12.09 14.155 20.942 28.31 26.298 41.357c1.33-16.59-1.33-33.643-8.232-50.432a115.2 115.2 0 0 1-5.807-11.157Zm-89.472 47.104c-8.232-6.47-15.83-13.63-22.528-21.376c6.47-7.208 13.63-14.155 21.376-20.712c8.232 5.12 16.82 9.833 25.6 14.155c-3.643 9.365-8.232 18.497-13.63 27.168a115.2 115.2 0 0 1-10.195.765Zm-28.31-40.96c-5.12-3.875-10.195-8.002-15.127-12.323c-4.52-4.055-8.69-8.232-12.788-12.554c7.44-8.69 15.598-16.59 24.277-23.615c5.807 4.52 11.85 8.69 18.03 12.554c2.608 9.365 6.47 18.497 11.39 27.168a135.68 135.68 0 0 1-14.782 8.69Zm135.68-8.232c4.52 8.69 7.902 17.577 10.195 26.533c-5.807 1.552-11.85 2.842-18.03 3.875a154.453 154.453 0 0 1-8.69-15.598a115.2 115.2 0 0 1 16.525-14.81Z"></path></svg>

